# xmcd
#
# Track frame offsets:
#	150
#	18351
#	34119
#	53290
#	71574
#	87593
#	104098
#	121132
#	138757
#	159210
#	178699
#	198601
#	210721
#	228533
#	241529
#	256582
#	271600
#
# Disc length: 3829 seconds
#
# Revision: 2
# Processed by: cddbd v1.5.2PL0 Copyright (c) Steve Scherf et al.
# Submitted via: audiograbber 1.83.01
#
DISCID=d80ef311
DTITLE=Various Artist - Totally Country Vol. 6
DYEAR=2007
DGENRE=Country
TTITLE0=Brad Paisley - The World
TTITLE1=Faith Hill - Sunshine and Summertime
TTITLE2=Kenny Chesney - Who You'd Be Today
TTITLE3=Carrie Underwood - Don't Forget to Remember Me
TTITLE4=The Wreckers - Leave the Pieces
TTITLE5=Sugarland - Something More
TTITLE6=Gary Allen - Life Ain't Always Beatiful
TTITLE7=Lonestar - Mountains
TTITLE8=Billy Currington - Must Be Doin' Somethin' Right
TTITLE9=Montgomery Gentry - Something to Be Proud Of
TTITLE10=Keith Anderson - Every Time I Hear Your Name
TTITLE11=Blake Shelton - Nobody But Me
TTITLE12=Phil Vassar - Last Day of My Life
TTITLE13=Gretchen Wilson - California Girls
TTITLE14=Martina McBride - (I Never Promised You A) Rose Garden
TTITLE15=George Strait - She Let Herself Go
TTITLE16=Big and Rich - 8th of November (Radio Edit)
EXTD=
EXTT0=
EXTT1=
EXTT2=
EXTT3=
EXTT4=
EXTT5=
EXTT6=
EXTT7=
EXTT8=
EXTT9=
EXTT10=
EXTT11=
EXTT12=
EXTT13=
EXTT14=
EXTT15=
EXTT16=
PLAYORDER=
